<?xml version="1.0" standalone="no"?>
<!DOCTYPE svg PUBLIC "-//W3C//DTD SVG 20010904//EN"
 "http://www.w3.org/TR/2001/REC-SVG-20010904/DTD/svg10.dtd">
<svg version="1.0" xmlns="http://www.w3.org/2000/svg"
 width="900.000000pt" height="512.000000pt" viewBox="0 0 900.000000 512.000000"
 preserveAspectRatio="xMidYMid meet">

<g transform="translate(0.000000,512.000000) scale(0.100000,-0.100000)"
fill="#c70101" stroke="none">
<path d="M4310 5114 c-640 -58 -1190 -313 -1627 -755 -396 -401 -632 -875
-719 -1449 -25 -161 -25 -539 0 -700 44 -291 119 -533 242 -780 133 -267 270
-460 476 -668 397 -402 890 -649 1468 -739 160 -24 538 -24 700 1 573 87 1048
323 1449 719 403 398 649 887 737 1467 25 162 25 540 1 700 -45 291 -120 531
-243 780 -378 763 -1085 1277 -1934 1405 -101 15 -457 27 -550 19z m277 -1794
c38 -14 1291 -1265 1309 -1307 56 -129 -71 -262 -203 -213 -15 6 -288 270
-610 593 l-583 582 -582 -582 c-323 -323 -596 -587 -611 -593 -129 -47 -254
78 -207 207 14 35 1264 1290 1305 1309 36 16 142 18 182 4z"/>
</g>
</svg>
